# xmcd
# Track frame offsets:
# 150
# 17577
# 37130
# 53220
# 70802
# 88105
# 108745
# 120455
# 135907
# 147440
# 165732
# 185977
#
# Disc length: 2736 seconds
# Revision: 4
# Processed by: cddbd v1.5.2PL0 Copyright (c) Steve Scherf et al.
# Submitted via: VisiTrax 2.10.0.248 - For more info visit www.synapsa.com
#
DISCID=ae0aae0c
DTITLE=Willie Nelson - Stardust
DYEAR=1999
DGENRE=Country
TTITLE0=Stardust
TTITLE1=Georgia On My Mind
TTITLE2=Blue Skies
TTITLE3=All Of Me
TTITLE4=Unchained Melody
TTITLE5=September Song
TTITLE6=On The Sunny Side Of The Street
TTITLE7=Moonlight In Vermont
TTITLE8=Don't Get Around Much Anymore
TTITLE9=Someone To Watch Over Me
TTITLE10=Scarlet Ribbons
TTITLE11=I Can See Clearly Now
EXTD=YEAR: 1978
EXTT0=
EXTT1=
EXTT2=
EXTT3=
EXTT4=
EXTT5=
EXTT6=
EXTT7=
EXTT8=
EXTT9=
EXTT10=
EXTT11=
PLAYORDER=
